<svg xmlns="http://www.w3.org/2000/svg" xmlns:xlink="http://www.w3.org/1999/xlink" viewBox="0 0 100.1 31.52"><defs><style>.cls-1{fill:none;}.cls-2{clip-path:url(#clip-path);}.cls-3{fill:#ed1c24;}</style><clipPath id="clip-path" transform="translate(0 0)"><rect class="cls-1" width="100.1" height="31.52"/></clipPath></defs><title>caliente_logo</title><g id="Layer_2" data-name="Layer 2"><g id="Layer_1-2" data-name="Layer 1"><g id="Vector_Smart_Object" data-name="Vector Smart Object"><g class="cls-2"><g class="cls-2"><path class="cls-3" d="M100.1,13.32A1.34,1.34,0,0,0,98.68,12a14.16,14.16,0,0,0-9.15,3.24c-2.07,1.46-4.6,3.94-6,4.93-.4.3-.6-.74-.11-1.43L87.24,13l2.5-.16.84-1.19-2.48.17,2-3-4.86.92-1.68,2.33-1.45.13-.82,1.17,1.24-.14c-.12.82-3.32,4.12-4.08,4.69a34.32,34.32,0,0,1-3.39,2.2.27.27,0,0,1-.38-.33A17,17,0,0,1,77.24,16a16.56,16.56,0,0,0,2.34-3.68c.17-.52-.37-.52-.81-.35C76.19,13,73,16,69.4,18.71c-.34.24-.65-.27-.22-.91L73,12.09,68.23,13l-2.14,3a25.55,25.55,0,0,1-11,8.15c-.18.07-1.06.4-1.27,0a2.6,2.6,0,0,1,0-1.63c3-.48,11.49-6,11.54-9.28,0-1.13-.78-1.32-1.84-1.32a16.17,16.17,0,0,0-7.15,2.21c-3.19,1.94-6.23,5.85-7.46,6.11a.68.68,0,0,1-.21-.43,1.87,1.87,0,0,1,.49-1.21l4.27-6.43-4.83.87-1.42,2.09a21.58,21.58,0,0,1-6,5c-.15,0-.42-.06-.42-.3a4.18,4.18,0,0,1,.91-2.06l7-10.18-4.89.8-5,7.25a18.77,18.77,0,0,1-5.2,4.68c-.1,0-.45,0-.45-.3,0-1.39,2.7-4.84,4.28-7.23a27.87,27.87,0,0,1-5.88-.16c-4.37,0-8.1,3.07-10.93,6.45a51.15,51.15,0,0,1-8.63,7.41,12.16,12.16,0,0,1-4.3,1.77c-1.47.11-2.25-1.81-2.25-4a14.65,14.65,0,0,1,3.56-8.77C15,16.62,21.42,12.29,26,9.21c.77,1,2.58,1.21,5.89-.26a9.76,9.76,0,0,0,4.29.33,13.63,13.63,0,0,0,3.12.57,8,8,0,0,0,1.17-2l-.24-.47-.09-.81a3.58,3.58,0,0,0-1.75-.68,44.61,44.61,0,0,0-5.7-3.13L32.09,2A37.88,37.88,0,0,1,24.9,0l-.26.3.78,1.83C18,4.53,13.56,7.3,7.75,12.37A18.24,18.24,0,0,1,0,10.21c1.23,2.45,4.52,3.81,5.7,4.32C4.22,16.19,0,20.92,0,25.74c0,2.78,2,5.79,4.41,5.79,4.6,0,10.64-5.61,14-8.43a9.69,9.69,0,0,0-1,3.75c0,.58.43.39.55.45.73.4,7.23-6,10.65-7.49a1.49,1.49,0,0,1,.57-.09c-1.18,1.52-4.18,5-4.18,7,0,.68.55.6.55.6,1.68-.42,7.55-5.06,10-6.7-1.51,2.51-2.78,4.44-2.72,6,0,.25.08.69.52.69.85,0,9.3-6.52,10.47-7.36-.82,1.19-3.08,4.84-3.08,6.27,0,.44.21,1.22.65,1.09.93-.25,4.33-2.83,8.46-6A8.47,8.47,0,0,0,48.81,25a2.15,2.15,0,0,0,2.45,2.26c3.38-.09,8.38-4.08,11.55-6.45-1.23,2-2.39,3.38-3,5.25-.21.65-.14,1.35.34,1.15.79-.3,9.4-7.64,10.72-8.13.05,0,.9-.4.3.54-1.22,1.87-3.37,4.07-4.08,6.12-.14.43-.36,1.52.52,1.52.73,0,9-7,11.18-8.4-1.32,2.07-3.63,5.49-3.76,7.22,0,.37,0,1.24.5,1.18,1-.12,8.05-5.74,9.35-6.7a8.92,8.92,0,0,0-1.31,4.47,2.1,2.1,0,0,0,2.13,2.22c3.54-.29,8-3.59,11.14-5.93l.21-1.42a24.44,24.44,0,0,1-7.84,4.37.62.62,0,0,1-.81-.56c0-.51-.09-.83.15-1.2,2.1-.15,11.48-5.73,11.48-9.24M95.2,14C97,14,92.09,20.77,89,21.13,89.74,18.74,93.72,14,95.2,14m-34.79-.07c2,.07-3.12,6.87-6.2,7.22.75-2.38,4.76-7.29,6.2-7.22M27.92,3.55l-.86-1v-.3a4.64,4.64,0,0,1,2.51,1.14A9.11,9.11,0,0,1,32,3.78a2.47,2.47,0,0,0,1.54,1.53l2.32,1c-.6,1.44-3.25.8-3.8.6-1.51.3-3.56.42-4.12-.43-3.45,2.26-11.38,5.83-16.18,6.22A40.71,40.71,0,0,1,27.92,3.55m-2.38,16.5c0-2.25,4.5-6,7-6,0,.8-5.22,5.77-7,6M54.69,8.48c.91-.65,1.42-1.68.7-2.46a2.07,2.07,0,0,0-1.93,0c-.88.35-2.84,2.15-2.88,3.75,0,.47,2.71-.35,4.1-1.31" transform="translate(0 0)"/><path class="cls-3" d="M100,26A1.11,1.11,0,1,1,98.88,25,1.08,1.08,0,0,1,100,26M98,26a.83.83,0,0,0,.84.86.82.82,0,0,0,.82-.85A.83.83,0,1,0,98,26m.66.56h-.25V25.53a2.19,2.19,0,0,1,.41,0,.67.67,0,0,1,.37.08.3.3,0,0,1,.11.24.28.28,0,0,1-.22.25h0a.32.32,0,0,1,.2.26.82.82,0,0,0,.08.27h-.27a.92.92,0,0,1-.09-.26c0-.12-.09-.17-.22-.17h-.12Zm0-.61h.12c.14,0,.25,0,.25-.16s-.07-.16-.23-.16h-.14Z" transform="translate(0 0)"/></g></g></g></g></g></svg>